<svg id="Capa_1" viewBox="-6 0 512 512" xmlns="http://www.w3.org/2000/svg"><path d="M80 282c0 5.523-4.477 10-10 10s-10-4.477-10-10 4.477-10 10-10 10 4.477 10 10zm55.383 111.145c-26.473-16.918-45.008-43.051-52.188-73.583-1.265-5.378-6.648-8.71-12.023-7.445-5.375 1.262-8.711 6.645-7.445 12.024 8.378 35.629 30.003 66.12 60.89 85.855 4.625 2.957 10.817 1.64 13.809-3.043 2.972-4.652 1.613-10.836-3.043-13.808zm0 0"/><path d="M483.922 206.02A60.966 60.966 0 0 0 438.8 186H380v-16c0-5.523-4.477-10-10-10H30c-5.523 0-10 4.477-10 10v122c0 55.047 24.984 106.184 66.855 140H10c-5.523 0-10 4.477-10 10s4.477 10 10 10c5.883 0 11.14 3.95 12.79 9.605C31.421 491.277 59.058 512 90 512h240c30.938 0 58.578-20.723 67.21-50.39 1.65-5.66 6.907-9.61 12.79-9.61 5.523 0 10-4.477 10-10s-4.477-10-10-10h-96.844a180.1 180.1 0 0 0 21.297-20.332c3.281.187 6.535.293 9.758.293 40.117-.004 75.726-14.645 103.676-42.813 28.574-28.796 46.851-70.078 51.472-116.234a60.971 60.971 0 0 0-15.437-46.894zM380 246h58.8c.29 0 .403.016.614.246.274.305.266.414.234.688-2.707 27.093-14.84 87.472-68.804 101.879C376.922 330.577 380 311.543 380 292zm-1.992 210.008C371.844 477.19 352.102 492 330 492H90c-22.102 0-41.844-14.797-48.008-35.988a32.658 32.658 0 0 0-1.46-4.024h338.937a32.6 32.6 0 0 0-1.461 4.02zM122.523 432C71.566 403.75 40 350.344 40 292V180h320v112c0 58.953-32.117 112.04-82.5 140zm356.938-181.074c-6.816 68.086-50.121 137.844-129.691 140.918 4.472-6.7 8.5-13.68 12.035-20.914 28.14-3.692 51.851-17.493 68.84-40.149 15.64-20.86 25.636-49.164 28.906-81.844.597-5.906-1.266-11.601-5.285-16.09-4.012-4.413-9.504-6.847-15.465-6.847H380v-20h58.8c11.692 0 22.45 4.773 30.294 13.441 7.847 8.668 11.527 19.852 10.367 31.485zM191.71 85c0 11.7 3.724 22.797 10.481 31.246 3.461 4.328 9.754 5.004 14.055 1.563 4.313-3.45 5.012-9.743 1.563-14.055-3.875-4.848-6.098-11.68-6.098-18.754s2.223-13.906 6.098-18.75c14.02-17.523 14.02-44.977 0-62.496-3.45-4.313-9.743-5.012-14.055-1.563-4.316 3.45-5.012 9.743-1.563 14.059 8.133 10.164 8.133 27.34 0 37.504-6.757 8.45-10.48 19.547-10.48 31.246zm60 0c0 11.7 3.724 22.797 10.481 31.246 3.461 4.328 9.754 5.004 14.055 1.563 4.313-3.45 5.012-9.743 1.563-14.055-3.875-4.848-6.098-11.68-6.098-18.754s2.223-13.906 6.098-18.75c14.02-17.523 14.02-44.977 0-62.496-3.45-4.313-9.743-5.012-14.055-1.563-4.317 3.45-5.012 9.743-1.563 14.059 8.133 10.164 8.133 27.34 0 37.504-6.757 8.45-10.48 19.547-10.48 31.246zm-120 0c0 11.7 3.724 22.797 10.481 31.246 3.461 4.328 9.754 5.004 14.055 1.563 4.313-3.45 5.012-9.743 1.563-14.055-3.875-4.848-6.098-11.68-6.098-18.754s2.223-13.906 6.098-18.75c14.02-17.523 14.02-44.977 0-62.496-3.45-4.313-9.746-5.012-14.055-1.563-4.316 3.45-5.012 9.743-1.563 14.059 8.133 10.164 8.133 27.34 0 37.504-6.757 8.45-10.48 19.547-10.48 31.246zm0 0"/></svg>