<svg version="1.1" id="Capa_1" xmlns="http://www.w3.org/2000/svg" x="0" y="0" viewBox="0 0 409.6 409.6" xml:space="preserve"><path d="M173.479 0H47.787a6.826 6.826 0 0 0-6.827 6.827v375.467a6.825 6.825 0 0 0 6.827 6.827H204.8a6.826 6.826 0 0 0 6.827-6.827V38.144C211.627 17.109 194.514 0 173.479 0zm24.494 375.467H54.613V13.653h118.866c13.507 0 24.494 10.988 24.494 24.491v337.323z"/><path d="M361.813 0H236.121c-21.035 0-38.147 17.109-38.147 38.144v344.149a6.825 6.825 0 0 0 6.827 6.827h157.013a6.826 6.826 0 0 0 6.827-6.827V6.827A6.827 6.827 0 0 0 361.813 0zm-6.826 375.467h-143.36V38.144c0-13.503 10.988-24.491 24.494-24.491h118.866v361.814zm6.826 20.48H47.787a6.826 6.826 0 0 0-6.827 6.827 6.825 6.825 0 0 0 6.827 6.827h314.027a6.826 6.826 0 0 0 6.827-6.827 6.826 6.826 0 0 0-6.828-6.827z"/><path d="M334.507 34.133h-102.4a6.826 6.826 0 0 0-6.827 6.827 6.825 6.825 0 0 0 6.827 6.827h102.4a6.826 6.826 0 0 0 6.827-6.827 6.826 6.826 0 0 0-6.827-6.827zm0 34.134h-102.4c-3.773 0-6.827 3.057-6.827 6.827s3.053 6.827 6.827 6.827h102.4c3.773 0 6.827-3.057 6.827-6.827s-3.054-6.827-6.827-6.827zm0 34.133h-102.4a6.826 6.826 0 0 0-6.827 6.827 6.825 6.825 0 0 0 6.827 6.827h102.4a6.826 6.826 0 0 0 6.827-6.827 6.826 6.826 0 0 0-6.827-6.827zm0 170.667h-102.4c-3.773 0-6.827 3.057-6.827 6.827s3.053 6.827 6.827 6.827h102.4c3.773 0 6.827-3.057 6.827-6.827s-3.054-6.827-6.827-6.827zm-47.787-40.96h-54.613c-3.773 0-6.827 3.057-6.827 6.827s3.053 6.827 6.827 6.827h54.613c3.773 0 6.827-3.057 6.827-6.827s-3.054-6.827-6.827-6.827zm47.787-95.574h-102.4c-3.773 0-6.827 3.057-6.827 6.827s3.053 6.827 6.827 6.827h102.4c3.773 0 6.827-3.057 6.827-6.827s-3.054-6.827-6.827-6.827zm0 157.014h-102.4c-3.773 0-6.827 3.057-6.827 6.827s3.053 6.827 6.827 6.827h102.4c3.773 0 6.827-3.057 6.827-6.827s-3.054-6.827-6.827-6.827zm0-136.534h-102.4a6.826 6.826 0 0 0-6.827 6.827 6.825 6.825 0 0 0 6.827 6.827h102.4a6.826 6.826 0 0 0 6.827-6.827 6.826 6.826 0 0 0-6.827-6.827zm0 20.48h-102.4c-3.773 0-6.827 3.057-6.827 6.827s3.053 6.827 6.827 6.827h102.4c3.773 0 6.827-3.057 6.827-6.827s-3.054-6.827-6.827-6.827zM95.573 109.227a6.826 6.826 0 0 0-6.827 6.827V307.2c0 3.77 3.053 6.827 6.827 6.827s6.827-3.057 6.827-6.827V116.053a6.824 6.824 0 0 0-6.827-6.826zm68.267 0a6.826 6.826 0 0 0-6.827 6.827V307.2c0 3.77 3.053 6.827 6.827 6.827s6.827-3.057 6.827-6.827V116.053a6.825 6.825 0 0 0-6.827-6.826z"/><path d="M116.053 109.227a6.826 6.826 0 0 0-6.827 6.827v34.133c0 7.53-6.127 13.653-13.653 13.653-7.526 0-13.653-6.123-13.653-13.653v-34.133c0-3.77-3.053-6.827-6.827-6.827s-6.827 3.057-6.827 6.827v34.133c0 15.056 12.247 27.307 27.307 27.307s27.307-12.25 27.307-27.307v-34.133a6.824 6.824 0 0 0-6.827-6.827zm47.787 0c-15.06 0-27.307 12.25-27.307 27.307v81.92a6.825 6.825 0 0 0 6.827 6.827h20.48a6.826 6.826 0 0 0 6.827-6.827v-102.4a6.825 6.825 0 0 0-6.827-6.827zm-6.827 102.4h-6.827v-75.093c0-5.043 2.746-9.457 6.827-11.82v86.913z"/></svg>