<svg version="1.1" id="Capa_1" xmlns="http://www.w3.org/2000/svg" x="0" y="0" viewBox="0 0 48 48" xml:space="preserve"><path d="M9.295 28.562c-5.066 0-9.188-4.122-9.188-9.188s4.122-9.188 9.188-9.188c.527 0 1.054.046 1.575.138A13.643 13.643 0 0 1 24.128 0C30.9 0 36.594 4.971 37.632 11.538a8.023 8.023 0 0 1 2.135-.288c4.48 0 8.125 3.645 8.125 8.125S44.248 27.5 39.767 27.5a8.16 8.16 0 0 1-6.663-3.491 13.528 13.528 0 0 1-8.976 3.366c-2.746 0-5.358-.801-7.617-2.324a9.11 9.11 0 0 1-7.216 3.511zm0-16.374c-3.963 0-7.188 3.224-7.188 7.188s3.224 7.188 7.188 7.188a7.143 7.143 0 0 0 6.127-3.445l.588-.961.884.699a11.562 11.562 0 0 0 7.233 2.52c3.229 0 6.238-1.298 8.474-3.655l1.006-1.06.624 1.322a6.154 6.154 0 0 0 5.535 3.519c3.377 0 6.125-2.748 6.125-6.125s-2.748-6.125-6.125-6.125c-.888 0-1.752.192-2.569.572l-1.331.617-.088-1.464C35.407 6.821 30.29 2 24.128 2a11.65 11.65 0 0 0-11.506 9.701l-.19 1.111-1.081-.322a7.182 7.182 0 0 0-2.056-.302z"/><path d="M37.643 48H10.364L6.476 27.685a1.001 1.001 0 0 1 1.964-.375L12.018 46h23.971l3.748-19.582a1.001 1.001 0 0 1 1.965.377L37.643 48z"/><path d="M24.089 48a1 1 0 0 1-1-1V33.908a1 1 0 1 1 2 0V47a1 1 0 0 1-1 1zm-6.774 0c-.514 0-.951-.394-.996-.915l-1.11-13.092a1 1 0 0 1 .912-1.081.992.992 0 0 1 1.081.911l1.11 13.092A1 1 0 0 1 17.315 48zm13.46 0a.998.998 0 0 1-.993-1.123l1.627-13.092a.992.992 0 0 1 1.115-.869.998.998 0 0 1 .869 1.115l-1.627 13.092a1 1 0 0 1-.991.877zM16.761 13.974a1 1 0 0 1-1-1c0-4.432 3.606-8.038 8.038-8.038a1 1 0 0 1 0 2 6.044 6.044 0 0 0-6.038 6.038 1 1 0 0 1-1 1z"/></svg>