<svg version="1.1" id="Capa_1" xmlns="http://www.w3.org/2000/svg" x="0" y="0" viewBox="0 0 452.453 452.453" xml:space="preserve"><path d="M446.226 242.698c0-20.022-8.794-39.826-25.431-57.27-14.528-15.233-35.109-28.746-59.779-39.318l71.57-91.523a16.459 16.459 0 0 0 3.064-14.007 16.459 16.459 0 0 0-9.031-11.138 16.535 16.535 0 0 0-20.481 5.289l-72.927 101.243a305.8 305.8 0 0 0-12.197-3.483l61.405-107.76a16.456 16.456 0 0 0 .998-14.304A16.458 16.458 0 0 0 372.865.719a16.537 16.537 0 0 0-19.498 8.207L292.478 126.31c-21.377-3.71-43.637-5.613-66.252-5.613-58.247 0-113.087 12.387-154.418 34.879-42.291 23.016-65.582 53.956-65.582 87.121v.005c0 56.072 22.915 108.775 64.524 148.401 41.542 39.562 96.758 61.349 155.476 61.349s113.934-21.788 155.476-61.349c41.609-39.625 64.524-92.329 64.524-148.401v-.004zm-10 0c0 1.72-.079 3.441-.229 5.16-16.52-29.183-52.076-53.673-100.63-68.948l19.267-24.638c51.163 21.256 81.592 54.131 81.592 88.426zM414.253 40.576a6.538 6.538 0 0 1 8.099-2.091 6.508 6.508 0 0 1 3.57 4.404 6.507 6.507 0 0 1-1.212 5.538L306.713 199.319a116.335 116.335 0 0 0-6.378-.596l38.836-53.915.041-.057 75.041-104.175zm-87.222 103.977l-19.432 26.978a342.56 342.56 0 0 0-7.899-1.634l16.182-28.398c3.75.951 7.474 1.97 11.149 3.054zm35.214-131.022a6.542 6.542 0 0 1 7.709-3.245 6.503 6.503 0 0 1 4.172 3.838 6.507 6.507 0 0 1-.394 5.656l-94.85 166.452a5 5 0 0 0 8.687 4.951l6.897-12.104c2.268.419 4.517.86 6.745 1.318 0 0-12.892 17.963-13.015 18.214-37.039 1.718-58.747 21.851-59.744 22.794a5 5 0 1 0 6.877 7.259c.236-.225 24.222-22.474 64.25-19.973 40.225 2.514 67.267 27.714 67.53 27.963a4.982 4.982 0 0 0 3.447 1.379 5 5 0 0 0 3.449-8.621c-1.028-.979-22.272-20.855-56.073-28.212l10.837-13.857c53.539 16.135 91.99 44.508 103.643 76.502-8.977 24.639-33.684 47.254-69.826 63.824-38.014 17.428-86.441 27.026-136.362 27.026-56.608 0-109.751-11.954-149.638-33.659-29.398-15.998-48.813-35.785-56.56-57.15 10.613-29.23 43.278-55.241 89.482-71.875a282.633 282.633 0 0 1 5.472-1.905s-3.861 8.428-2.23 12.813c1.63 4.386 5.358 7.463 9.973 8.232l2.318.387a215.812 215.812 0 0 0 35.367 2.927 214.36 214.36 0 0 0 76.487-14.056c6.711-2.552 10.972-8.597 11.12-15.775.088-4.265-1.3-8.183-3.818-11.259 7.73.353 15.397.939 22.958 1.745l-6.371 12.282a5.001 5.001 0 0 0 8.877 4.605l9.671-18.643.003-.006 82.91-159.827zm-206.954 152.98a5 5 0 0 0 6.744 2.126l22.873-11.906 4.141 1.775-42.355 24.885a4.999 4.999 0 0 0-1.777 6.844 4.998 4.998 0 0 0 6.843 1.778l48.704-28.615 7.932 3.399-34.507 17.951a5 5 0 0 0 4.615 8.871s41.266-21.545 41.571-21.817l6.725 2.882-18.404 9.58a5.002 5.002 0 0 0 2.312 9.436 4.98 4.98 0 0 0 2.305-.566l24.056-12.522c.883 1.565.966 3.152.953 3.818-.023 1.148-.432 5.02-4.677 6.635a204.409 204.409 0 0 1-72.933 13.402c-11.265 0-22.61-.939-33.723-2.791l-2.318-.387c-1.497-.249-2.068-1.378-2.244-1.852s-.48-1.702.489-2.868l36.896-44.346a8.182 8.182 0 0 1 6.306-2.956c1.113 0 2.198.223 3.226.664l3.986 1.708-15.612 8.127a5.002 5.002 0 0 0-2.127 6.745zm-78.702-2.15c39.89-21.708 93.031-33.663 149.638-33.663 20.942 0 41.565 1.667 61.42 4.929l-15.556 29.99c-22.694-2.959-37.871-2.584-47.231-2.643l-51.876-22.233a18.085 18.085 0 0 0-7.165-1.472 18.153 18.153 0 0 0-13.993 6.56l-25.159 30.24c-29.183 8.173-55.103 20.045-75.027 34.398-15.549 11.201-27.48 23.953-35.179 37.46a59.958 59.958 0 0 1-.233-5.229c-.002-29.333 21.436-57.154 60.361-78.337zm149.637 278.092c-99.404 0-182.895-66.037-204.54-154.411 11.111 15.55 28.014 29.75 50.122 41.781 41.329 22.49 96.169 34.875 154.418 34.875 91.644 0 172.02-31.207 204.584-76.829-21.577 88.461-105.115 154.584-204.584 154.584z"/><path d="M110.726 292.703c34.486 0 61.5-14.495 61.5-33s-27.014-33-61.5-33c-38.75 0-52.5 17.777-52.5 33 0 15.223 13.75 33 52.5 33zm0-56c30.35 0 51.5 12.121 51.5 23 0 5.399-5.019 10.982-13.769 15.319-9.995 4.953-23.395 7.681-37.731 7.681-25.817 0-42.5-9.028-42.5-23 0-13.973 16.683-23 42.5-23z"/><path d="M100.704 276.703c13.879 0 24.75-7.373 24.75-16.785 0-9.412-10.871-16.784-24.75-16.784s-24.75 7.373-24.75 16.784c0 9.412 10.871 16.785 24.75 16.785zm0-23.569c9.004 0 14.75 4.018 14.75 6.784s-5.746 6.785-14.75 6.785-14.75-4.019-14.75-6.785 5.746-6.784 14.75-6.784zm96.899 18.574c-.906 6.795 3.645 12.105 13.527 15.783 7.071 2.631 16.484 4.43 25.588 6.169 10.423 1.991 27.867 5.324 29.473 9.299.133.329-.141 1.238-1.05 2.526-10.361 14.679-68.797 12.249-103.198 7.269a4.994 4.994 0 0 0-5.665 4.231 5 5 0 0 0 4.231 5.665c.951.138 23.595 3.384 48.617 3.884 2.196.044 4.335.066 6.421.066 31.559 0 50.485-5.038 57.764-15.348 3.687-5.223 3.205-9.428 2.152-12.037-3.646-9.031-19.042-11.972-36.869-15.378-8.697-1.662-17.692-3.38-23.977-5.719-4.642-1.728-7.297-3.63-7.103-5.089.194-1.454 1.263-2.917 3.177-4.348 14.332-10.715 64.763-12.239 91.766-8.039a4.995 4.995 0 0 0 5.709-4.172 4.999 4.999 0 0 0-4.172-5.709c-25.559-3.975-80.596-4.064-99.291 9.911-4.148 3.102-6.537 6.815-7.1 11.036z"/><path d="M294.351 292.493c-4.955-7.297-16.742-12.929-28.974-17.044 17.831-2.324 31.908.431 32.177.485a5 5 0 0 0 2.013-9.795c-1.102-.228-26.854-5.348-54.635 3.662-7.814-1.772-13.867-2.766-15.6-3.038a5 5 0 1 0-1.549 9.879c4.595.721 9.997 1.768 15.637 3.08.336.118 3.791.91 5.177 1.265 16.134 4.135 32.816 10.255 37.48 17.123 1.197 1.763 1.129 2.97.937 3.824-2.309 10.225-8.243 17.879-18.142 23.401-12.47 6.955-31.144 10.322-55.587 10.034h-.062a5.001 5.001 0 0 0-.06 10c1.02.013 2.025.019 3.027.019 47.288-.001 74.396-13.872 80.576-41.25.9-3.97.064-7.996-2.415-11.645zm-37.4-60.098c.412-.151 41.845-14.869 83.214 7.697a5.002 5.002 0 0 0 4.79-8.78c-45.472-24.802-89.604-8.986-91.459-8.301a4.997 4.997 0 0 0-2.958 6.414 4.998 4.998 0 0 0 6.413 2.97zm50.503 54.277a5 5 0 0 0 6.741 2.135c.35-.181 35.347-17.991 69.335-5.734a5 5 0 1 0 3.392-9.407c-38.063-13.724-75.747 5.443-77.333 6.266a4.999 4.999 0 0 0-2.135 6.74zm29.894 12.029l27.333-.667a5 5 0 0 0 4.876-5.121 4.999 4.999 0 0 0-4.996-4.878l-.124.001-27.333.667a5 5 0 0 0-4.876 5.121 4.999 4.999 0 0 0 4.996 4.878c.041.001.082 0 .124-.001zm-143.727 2.965a4.99 4.99 0 0 0 5.568-4.358 5 5 0 0 0-4.357-5.569c-25.805-3.147-38.108 2.486-51.13 8.451-8.531 3.908-17.353 7.949-31.23 10.069-32.058 4.903-46.357-17.177-46.995-18.191a4.999 4.999 0 0 0-8.508 5.254c.653 1.063 14.953 23.657 46.321 23.657 3.364 0 6.931-.261 10.691-.835 15.261-2.332 25.155-6.864 33.886-10.864 12.71-5.821 22.749-10.421 45.754-7.614zm187.657-1.584c-7.321 6.973-29.513 6.557-45.717 6.253-3.635-.068-7.069-.133-10.335-.133-23.106 0-33.696 25.539-34.136 26.626a5 5 0 0 0 9.272 3.749c.082-.204 8.426-20.374 24.864-20.374 3.172 0 6.561.063 10.147.131 19.922.374 42.503.798 52.801-9.01a5 5 0 0 0-6.896-7.242zM185.82 247.294h23.998a5 5 0 1 0 0-10H185.82c-8.571 0-15.982-10.037-18.115-13.904a5 5 0 0 0-8.773 4.799c.425.78 10.607 19.105 26.888 19.105z"/></svg>