<svg version="1.1" id="Layer_1" xmlns="http://www.w3.org/2000/svg" x="0" y="0" viewBox="0 0 469.333 469.333" xml:space="preserve"><path d="M128 426.667h10.667A10.66 10.66 0 0 0 149.334 416a10.66 10.66 0 0 0-10.667-10.667H128c-11.771 0-21.333-9.573-21.333-21.333v-10.667A10.66 10.66 0 0 0 96 362.666a10.66 10.66 0 0 0-10.667 10.667V384c0 23.531 19.146 42.667 42.667 42.667z"/><path d="M448 128h-21.333v-10.667c0-41.167-33.5-74.667-74.667-74.667h-87.298c1.195-3.353 1.965-6.909 1.965-10.667 0-17.646-14.354-32-32-32s-32 14.354-32 32c0 3.758.77 7.314 1.965 10.667h-87.298c-41.167 0-74.667 33.5-74.667 74.667V128H21.333C9.562 128 0 137.573 0 149.333 0 166.01 7.979 181.969 21.333 192l21.333 15.996v186.671c0 41.167 33.5 74.667 74.667 74.667H352c41.167 0 74.667-33.5 74.667-74.667V207.999L448.021 192c13.333-10.031 21.313-25.99 21.313-42.667C469.333 137.573 459.771 128 448 128zM42.667 181.332l-8.521-6.395c-8.021-6.021-12.812-15.594-12.812-25.604h21.333v31.999zm192-159.999c5.875 0 10.667 4.781 10.667 10.667 0 5.885-4.792 10.667-10.667 10.667S224 37.885 224 32s4.792-10.667 10.667-10.667zM117.333 64H352c25.763 0 47.299 18.353 52.255 42.667H65.078C70.034 82.353 91.57 64 117.333 64zm288 330.667C405.333 424.073 381.417 448 352 448H117.333C87.917 448 64 424.073 64 394.667V128h341.333v266.667zm29.875-219.73l-8.542 6.405v-32.009H448c0 10.011-4.792 19.584-12.792 25.604z"/></svg>