<svg version="1.1" id="Capa_1" xmlns="http://www.w3.org/2000/svg" x="0" y="0" viewBox="0 0 511.985 511.985" xml:space="preserve"><path d="M281.381 2.044a255.908 255.908 0 0 0-64.455-.014c-.31.084-.615.187-.913.308a8.259 8.259 0 0 0-1.685.57 8.199 8.199 0 0 0-1.404.901 8.136 8.136 0 0 0-1.122.984 8.276 8.276 0 0 0-1.117 1.611 8.14 8.14 0 0 0-.483.696l-18.63 43.12-.056.131-25.146 58.201c-.054.103-.086.21-.137.316L8.384 474.21c-3.764 8.655.201 18.722 8.855 22.486a17.086 17.086 0 0 0 13.628.001l149.875-64.74v54.432c.023 14.141 11.492 25.593 25.633 25.596 14.113.02 25.57-11.405 25.589-25.519.001-.372-.007-.743-.023-1.115V467.73a24.958 24.958 0 0 0 8.533 1.592c14.132-.015 25.585-11.468 25.6-25.6V395.06l68.267-29.493v44.022c.023 14.141 11.492 25.593 25.633 25.596 14.113.02 25.57-11.405 25.589-25.519 0-.372-.007-.743-.023-1.115V390.93a24.958 24.958 0 0 0 8.533 1.592c14.132-.015 25.585-11.468 25.6-25.6v-38.166l78.217-33.788c.471-.262.915-.57 1.326-.92a8.444 8.444 0 0 0 1.032-.717 14.891 14.891 0 0 0 1.856-2.53 8.347 8.347 0 0 0 .565-1.756c.109-.284.203-.574.279-.868C520.779 147.979 421.579 19.873 281.381 2.044zM180.119 119.757a59.209 59.209 0 0 1 56.832 15.52c23.327 23.327 23.327 61.148 0 84.475-23.327 23.327-61.148 23.327-84.475 0a57.98 57.98 0 0 1-9.795-13.342l37.438-86.653zm-71.511 165.516c26.286 10.303 39.243 39.964 28.941 66.25-10.303 26.286-39.964 39.243-66.25 28.941a50.792 50.792 0 0 1-3.217-1.39l40.526-93.801zm310.607 25.092a8.418 8.418 0 0 0-8.073-6.247 8.53 8.53 0 0 0-8.533 8.529v54.275a8.54 8.54 0 0 1-8.533 8.533 8.655 8.655 0 0 1-8.533-8.533v-8.533c0-4.713-3.82-8.533-8.533-8.533s-8.533 3.82-8.533 8.533v50.162a9.37 9.37 0 0 1-7.033 9.442 8.574 8.574 0 0 1-10.033-8.404v-76.8c-.015-14.132-11.468-25.585-25.6-25.6a8.533 8.533 0 0 0 0 17.066 8.542 8.542 0 0 1 8.533 8.533v14.188l-80.109 34.61-.026.011-.048.021c-.215.093-.35.276-.553.384a8.545 8.545 0 0 0-2.155 1.497 72.592 72.592 0 0 0-1.793 2.734 8.57 8.57 0 0 0-.47 2.328c-.077.293-.137.59-.18.89v54.271a8.54 8.54 0 0 1-8.533 8.533 8.655 8.655 0 0 1-8.533-8.533v-8.533c0-4.713-3.82-8.533-8.533-8.533s-8.533 3.82-8.533 8.533v50.163a9.37 9.37 0 0 1-7.033 9.442 8.574 8.574 0 0 1-10.033-8.404v-76.8c-.015-14.132-11.468-25.585-25.6-25.6a8.533 8.533 0 0 0 0 17.066 8.54 8.54 0 0 1 8.533 8.533v3.777L24.051 480.985l37.255-86.229c34.19 15.842 74.748.968 90.59-33.222 15.842-34.19.968-74.748-33.222-90.59a68.2 68.2 0 0 0-3.265-1.411l19.161-44.349c26.263 33.293 74.543 38.992 107.837 12.729 33.293-26.263 38.992-74.543 12.729-107.837a76.778 76.778 0 0 0-66.973-28.935L205.1 61.937c57.88.047 117.761 26.513 164.534 73.282 46.835 46.831 73.314 106.632 73.34 164.884l-23.759 10.262zm67.269-29.058l-26.514 11.454a256.728 256.728 0 0 0-78.269-169.609C333.704 75.147 272.557 47.02 212.446 44.934l11.424-26.441c131.019-14.029 248.604 80.81 262.633 211.829a238.599 238.599 0 0 1-.019 50.985z"/><path d="M380.326 210.001a46.6 46.6 0 0 0-33.183-13.746c-25.923-.003-46.94 21.01-46.943 46.933-.003 25.923 21.01 46.941 46.933 46.943s46.94-21.01 46.943-46.933a46.94 46.94 0 0 0-13.75-33.197zm-12.062 54.304l-.005.005c-11.817 11.283-30.416 11.283-42.233 0-11.665-11.662-11.667-30.573-.005-42.238 11.662-11.665 30.573-11.667 42.238-.005s11.667 30.573.005 42.238zm-103.655 18.751a33.904 33.904 0 0 0-24.133-10c-18.856-.005-34.146 15.277-34.151 34.133-.005 18.856 15.277 34.146 34.133 34.151 18.856.005 34.146-15.277 34.151-34.133a34.138 34.138 0 0 0-10-24.151zm-12.064 36.197l-.003.003c-6.752 6.45-17.382 6.45-24.133 0-6.666-6.664-6.667-17.47-.003-24.136s17.47-6.667 24.136-.003c6.667 6.664 6.668 17.47.003 24.136z"/></svg>