<svg version="1.1" id="Capa_1" xmlns="http://www.w3.org/2000/svg" x="0" y="0" viewBox="0 0 512.006 512.006" xml:space="preserve"><path d="M318.978 87.023a8.513 8.513 0 0 0-9.3 1.792 9.804 9.804 0 0 0-1.796 2.817 8.45 8.45 0 0 0 7.854 11.774 8.463 8.463 0 0 0 6.059-2.475 12.603 12.603 0 0 0 1.875-2.817 8.367 8.367 0 0 0 .6-3.242 7.161 7.161 0 0 0-.683-3.242 7.69 7.69 0 0 0-4.609-4.607z" transform="translate(0 -1)"/><path d="M377.095 1.006h-69.892c-4.713 0-8.533 3.82-8.533 8.533s3.82 8.533 8.533 8.533h69.892c54.898-.656 99.973 43.238 100.775 98.133-.802 54.896-45.877 98.789-100.775 98.133a101.445 101.445 0 0 1-79.548-37.883l148.802-47.858a8.531 8.531 0 0 0-.541-16.4L393.84 99.206l38.292-31.908a8.535 8.535 0 0 0-5.462-15.092H213.336a34.021 34.021 0 0 0-29.814 17.854C86.935 90.666 17.07 173.325 17.07 267.698c0 3.763.128 7.498.342 11.21a8.318 8.318 0 0 0 .404 5.033c8.653 103.03 98.742 184.552 208.966 186.31l33.675 33.738a28.832 28.832 0 0 0 20.329 9.017c.246 0 .496-.008.742-.017a29.64 29.64 0 0 0 21.238-10.858l24.658-30.716c.147-.183.181-.408.31-.599a31.463 31.463 0 0 0 3.244-2.468 32.082 32.082 0 0 0 0-47.216 31.305 31.305 0 0 0-3.199-2.379c-.145-.221-.187-.477-.355-.688l-24.929-31.034a29.368 29.368 0 0 0-20.966-10.542 28.784 28.784 0 0 0-21.067 9l-33.399 33.456c-35.42-1.345-63.597-23.786-78.599-59.54h5.21a18.734 18.734 0 0 1 14.208 7.025l13.375 15.6a8.537 8.537 0 0 0 12.959-11.117l-13.375-15.6a36.043 36.043 0 0 0-27.166-12.975h-11.076a160.305 160.305 0 0 1-3.68-17.067h17.614a25.775 25.775 0 0 1 18.1 7.5l15.605 15.6a8.533 8.533 0 0 0 12.066-12.066l-15.604-15.6a42.388 42.388 0 0 0-30.166-12.5H136.96a197.14 197.14 0 0 1-.421-12.608c0-1.524.08-2.964.107-4.458h22.743a33.657 33.657 0 0 1 21.967 7.892l17.833 15.6a8.534 8.534 0 0 0 11.233-12.85l-17.829-15.6a50.258 50.258 0 0 0-33.204-12.108h-21.81c3.021-30.34 12.796-53.45 29.134-69.278.055.029.086.083.143.111l52.271 26.133a25.618 25.618 0 0 1 13.896 19.283l6.004 42.025a8.53 8.53 0 0 0 8.433 7.325c.408.001.816-.027 1.221-.083a8.536 8.536 0 0 0 7.237-9.658l-6.004-42.025a42.661 42.661 0 0 0-23.154-32.133l-44.961-22.479a94.381 94.381 0 0 1 25.078-10.104 7.93 7.93 0 0 0 .963-.458 33.943 33.943 0 0 0 30.787 12.517 9.097 9.097 0 0 0 1.558-.341l40.176-12.921a118.273 118.273 0 0 0 96.737 49.42c64.321.65 117.033-50.881 117.842-115.2C494.128 51.887 441.415.356 377.095 1.006zm-87.367 490.125a12.792 12.792 0 0 1-8.7 4.8 11.42 11.42 0 0 1-8.492-3.992l-19.668-19.702 48.756 4.064-11.896 14.83zm-17.187-93.592a12.159 12.159 0 0 1 8.237-4l.25.009a12.498 12.498 0 0 1 8.429 4.483l12.16 15.148-48.746 4.063 19.67-19.703zm-33.605 37.984l69.067-5.758a14.956 14.956 0 0 1 11.417 3.917 15.025 15.025 0 0 1-11.417 26.033l-69.067-5.758v-18.434zM119.47 295.598c0 79.117 41.707 135.29 102.4 140.133v17.338c-92.179-3.751-168.038-67.894-184.407-151.546a60.904 60.904 0 0 0 30.677 8.492c.421 0 .846 0 1.271-.009a8.535 8.535 0 0 0-.179-17.067c-.367-.017-.713.009-1.058.009a48.974 48.974 0 0 1-33.734-15.129 176.871 176.871 0 0 1-.303-10.121 173.821 173.821 0 0 1 5.519-42.868 63.676 63.676 0 0 0 40.56 18.534c.162.009.321.017.483.017a8.532 8.532 0 0 0 .467-17.049 50.158 50.158 0 0 1-35.304-20.201c-.092-.137-.24-.204-.339-.333a183.903 183.903 0 0 1 27.289-48.1 64.233 64.233 0 0 0 35.425 30.6 8.53 8.53 0 1 0 5.4-16.184 49.942 49.942 0 0 1-28.659-28.53 197.349 197.349 0 0 1 94.226-54.909v4.94a153.044 153.044 0 0 0 19.185 74.25c-37.008 10.681-78.919 41.714-78.919 127.733zm168.297-133.925a97.531 97.531 0 0 1-6.597-15.3 8.533 8.533 0 0 0-16.2 5.366 114.659 114.659 0 0 0 6.358 15.221l-35.533 11.43a16.968 16.968 0 0 1-15.617-7.575l-.979-1.458a136.153 136.153 0 0 1-22.929-75.742V86.34c.011-9.421 7.645-17.056 17.067-17.067H403.1l-33.092 27.575a8.535 8.535 0 0 0 3.392 14.833l39.267 9.817-124.9 40.175z" transform="translate(0 -1)"/></svg>