<svg height="512pt" viewBox="-74 0 512 512.003" width="512pt" xmlns="http://www.w3.org/2000/svg"><g fill-rule="evenodd"><path d="M354.969 217.195h-67.547V161.04c0-5.523-4.477-10-10-10H10c-5.52 0-10 4.477-10 10v99.441c0 5.524 4.48 10 10 10 5.523 0 10-4.476 10-10v-89.44h83.559v43.483l-40.653 25.364a10 10 0 0 0-4.707 8.484v79.078c0 5.524 4.477 10 10 10h90.727c5.523 0 10-4.476 10-10v-79.078a10 10 0 0 0-4.707-8.484l-40.656-25.364V171.04h143.863v258.879H20V340.48c0-5.523-4.477-10-10-10-5.52 0-10 4.477-10 10v99.438c0 1.215.344 3.352 1.063 4.48l31.144 62.086a10 10 0 0 0 8.938 5.52H246.28a9.996 9.996 0 0 0 8.938-5.52l31.144-62.086c.551-1.097.977-2.605 1.063-4.48v-56.156h67.547c5.52 0 10-4.477 10-10V340.48c0-5.523-4.48-10-10-10-5.524 0-10 4.477-10 10v23.282h-57.547V237.195h57.547v23.282c0 5.523 4.476 10 10 10 5.52 0 10-4.477 10-10v-33.282c-.004-5.523-4.48-10-10.004-10zM148.926 317.45h-70.73v-63.527l35.363-22.063 35.363 22.063v63.527zm91.183 174.555H47.316l-21.113-42.09H261.22zM125.785 124.48c0 5.524 4.477 10 10 10 5.524 0 10-4.476 10-10 0-3.5 3.262-8.734 6.414-13.793 4.426-7.097 9.438-15.148 9.438-24.367 0-9.222-5.016-17.27-9.438-24.37-3.152-5.06-6.414-10.294-6.414-13.79 0-3.5 3.262-8.73 6.414-13.789 4.426-7.101 9.438-15.148 9.438-24.371 0-5.523-4.477-10-10-10-5.52 0-10 4.477-10 10 0 3.5-3.258 8.73-6.414 13.793-4.422 7.098-9.438 15.145-9.438 24.367s5.016 17.27 9.438 24.367c3.156 5.063 6.414 10.293 6.414 13.793s-3.258 8.73-6.414 13.79c-4.422 7.1-9.438 15.148-9.438 24.37zm-57.933 0c0 5.524 4.476 10 10 10 5.523 0 10-4.476 10-10 0-3.5 3.261-8.734 6.414-13.793 4.425-7.101 9.437-15.148 9.437-24.367 0-9.222-5.016-17.27-9.437-24.37-3.153-5.06-6.414-10.294-6.414-13.79 0-3.5 3.261-8.73 6.414-13.793 4.425-7.097 9.437-15.144 9.437-24.367 0-5.523-4.476-10-10-10-5.52 0-10 4.477-10 10 0 3.5-3.258 8.73-6.414 13.79-4.422 7.1-9.437 15.148-9.437 24.366 0 9.223 5.015 17.27 9.437 24.371 3.156 5.059 6.414 10.293 6.414 13.79 0 3.5-3.258 8.734-6.414 13.792-4.422 7.102-9.437 15.149-9.437 24.371zm115.867 0c0 5.524 4.476 10 10 10s10-4.476 10-10c0-3.5 3.258-8.734 6.414-13.793 4.422-7.097 9.437-15.148 9.437-24.367 0-9.222-5.015-17.27-9.437-24.37-3.156-5.06-6.414-10.294-6.414-13.79 0-3.5 3.258-8.73 6.414-13.789 4.422-7.101 9.437-15.148 9.437-24.371 0-5.523-4.476-10-10-10-5.52 0-10 4.477-10 10 0 3.5-3.261 8.73-6.414 13.793-4.422 7.098-9.441 15.145-9.441 24.367s5.02 17.27 9.441 24.367c3.153 5.063 6.414 10.293 6.414 13.793s-3.261 8.73-6.414 13.79c-4.422 7.1-9.437 15.148-9.437 24.37zm0 0"/><path d="M10 310.477c5.508 0 10-4.493 10-10 0-5.508-4.492-10-10-10s-10 4.492-10 10c0 5.507 4.492 10 10 10zm344.969-20c-5.508 0-10 4.492-10 10 0 5.507 4.492 10 10 10s10-4.493 10-10c0-5.508-4.492-10-10-10zm0 0"/></g></svg>